<svg xmlns="http://www.w3.org/2000/svg" width="204" height="200" viewBox="0 0 204 200">
  <g id="AndroidStudio" transform="translate(14965 9296)">
    <g id="Group_138" data-name="Group 138">
      <rect id="Rectangle_193" data-name="Rectangle 193" width="204" height="200" rx="11" transform="translate(-14965 -9296)" fill="none"/>
      <rect id="Rectangle_194" data-name="Rectangle 194" width="176" height="176" rx="13" transform="translate(-14952 -9283)" fill="#fff"/>
    </g>
    <g id="AndroidStudio-2" data-name="AndroidStudio" transform="translate(-14926.048 -9264.047)">
      <path id="Path_23" data-name="Path 23" d="M51.3,17.7H23.2A10.264,10.264,0,0,0,13,28a10.033,10.033,0,0,0,9.7,10.3H51.6l-.3-20.6Z" fill="#073042"/>
      <path id="Path_24" data-name="Path 24" d="M115,109.3H23.2A10.2,10.2,0,0,1,13,99V27.9A10.417,10.417,0,0,0,23.2,38.3h76.9s15-1.3,15,10v61Z" fill="#4285f4"/>
      <path id="Path_25" data-name="Path 25" d="M72.2,72.9A9.154,9.154,0,0,0,74,60a9.458,9.458,0,0,0-7.1-3.7h.3a4.3,4.3,0,0,1,1.6,0V50.6a1.7,1.7,0,0,0-.9-1.6,1.816,1.816,0,0,0-2.5.7,1.163,1.163,0,0,0-.2,1v5.8a9.279,9.279,0,0,0-7.7,10.6v.1a9.132,9.132,0,0,0,3.7,6L44.3,109.4h11l7.8-16.6a3.988,3.988,0,0,1,5.4-1.9,4.36,4.36,0,0,1,1.9,1.9l8.1,16.6H89.7Zm-5.7-1.6a5.72,5.72,0,0,1-5.7-5.8,5.575,5.575,0,0,1,5.8-5.6,5.7,5.7,0,0,1,4,9.7,5.9,5.9,0,0,1-4.1,1.7Z" fill="#3870b2"/>
      <path id="Path_26" data-name="Path 26" d="M45.2,22.7H84.6v7.2H45.2Z" fill="#fff"/>
      <path id="Path_27" data-name="Path 27" d="M63.5,59.8a5.806,5.806,0,1,1-4.1,1.7,5.806,5.806,0,0,1,4.1-1.7Zm2.2-3.3v-6a1.7,1.7,0,0,0-.9-1.6,1.816,1.816,0,0,0-2.5.7,1.163,1.163,0,0,0-.2,1v5.8A9.279,9.279,0,0,0,54.4,67v.1a9.132,9.132,0,0,0,3.7,6L36.8,118.8a4.943,4.943,0,0,0,.4,5.1,5.007,5.007,0,0,0,7,1.3,5.2,5.2,0,0,0,1.8-2.1L60.2,92.7a3.988,3.988,0,0,1,5.4-1.9,4.36,4.36,0,0,1,1.9,1.9L82,122.8a5.009,5.009,0,1,0,9-4.4L69.1,72.9a9.435,9.435,0,0,0-3.4-16.4" fill="#073042"/>
      <path id="Path_28" data-name="Path 28" d="M78.8,29.1a2.606,2.606,0,0,1-2.7-2.6,2.973,2.973,0,0,1,.8-2,2.782,2.782,0,0,1,3.8,0,2.732,2.732,0,0,1,.8,1.9,2.826,2.826,0,0,1-2.7,2.7M49.2,29a2.669,2.669,0,0,1-2.7-2.6,2.732,2.732,0,0,1,.8-1.9,2.674,2.674,0,0,1,3.7-.4h.1a2.69,2.69,0,0,1,.2,3.8l-.3.4a2.732,2.732,0,0,1-1.9.8M79.6,12.9l5.3-9.2a1.237,1.237,0,0,0-.3-1.5,1.06,1.06,0,0,0-1.3.3L77.8,12a33.781,33.781,0,0,0-27.5,0L44.9,2.6a1.326,1.326,0,0,0-1-.6,1.1,1.1,0,0,0-1,.6,1.083,1.083,0,0,0,0,1.1l5.4,9.2A31.828,31.828,0,0,0,31.9,38.2H96.1A31.451,31.451,0,0,0,79.7,12.9" fill="#3ddc84"/>
      <path id="Path_29" data-name="Path 29" d="M105.6,58.1h-4.2a.675.675,0,0,0-.4.6v66.5a.472.472,0,0,0,.5.5h4.4a9.24,9.24,0,0,0,9.2-9.2V48.8a9.176,9.176,0,0,1-9.2,9.2h-.3Z" fill="#073042"/>
    </g>
  </g>
</svg>
