<svg xmlns="http://www.w3.org/2000/svg" width="204" height="200" viewBox="0 0 204 200">
  <g id="Git" transform="translate(14616 9295)">
    <g id="Group_141" data-name="Group 141">
      <rect id="Rectangle_195" data-name="Rectangle 195" width="204" height="200" rx="11" transform="translate(-14616 -9295)" fill="none"/>
      <rect id="Rectangle_196" data-name="Rectangle 196" width="176" height="176" rx="13" transform="translate(-14603 -9282)" fill="#fff"/>
    </g>
    <path id="Git-2" data-name="Git" d="M124.737,58.378,69.621,3.264a8.131,8.131,0,0,0-11.5,0L46.68,14.71,61.2,29.228A9.654,9.654,0,0,1,73.424,41.535L87.416,55.528a9.661,9.661,0,1,1-5.794,5.453L68.574,47.933l0,34.341a9.655,9.655,0,1,1-7.953-.282V47.333a9.68,9.68,0,0,1-5.25-12.687L41.056,20.333,3.264,58.123a8.133,8.133,0,0,0,0,11.5l55.117,55.114a8.133,8.133,0,0,0,11.5,0l54.858-54.858a8.135,8.135,0,0,0,0-11.5Z" transform="translate(-14578 -9259)" fill="#f34f29"/>
  </g>
</svg>
