<svg xmlns="http://www.w3.org/2000/svg" width="204" height="200" viewBox="0 0 204 200">
  <g id="JavaScript" transform="translate(15156 10967)">
    <g id="Group_114" data-name="Group 114" transform="translate(-1348 -382)">
      <g id="_1" data-name="1" transform="translate(-71 -88)">
        <rect id="Rectangle_166" data-name="Rectangle 166" width="204" height="200" rx="11" transform="translate(-13737 -10497)" fill="none"/>
        <rect id="Rectangle_156" data-name="Rectangle 156" width="176" height="176" rx="13" transform="translate(-13724 -10484)" fill="#fff"/>
        <g id="JavaScript-2" data-name="JavaScript" transform="translate(-13710.204 -10471.205)">
          <path id="Path_23" data-name="Path 23" d="M1.408,1.408H147V147H1.408Z" fill="#f0db4f"/>
          <path id="Path_24" data-name="Path 24" d="M129.722,103.018c-1.066-6.642-5.4-12.221-18.227-17.423-4.457-2.048-9.42-3.515-10.906-6.892a7.514,7.514,0,0,1-.263-4.262c.955-3.861,5.564-5.065,9.217-3.954a10.142,10.142,0,0,1,5.923,5.494c6.28-4.071,6.27-4.042,10.657-6.837a27.241,27.241,0,0,0-3.515-4.7c-3.779-4.221-8.927-6.4-17.162-6.228l-4.289.555a19.463,19.463,0,0,0-10.324,6.088c-6.892,7.82-4.927,21.507,3.46,27.139,8.257,6.2,20.4,7.612,21.95,13.411,1.512,7.094-5.217,9.4-11.9,8.581-4.927-1.025-7.667-3.529-10.629-8.082-5.452,3.155-5.452,3.155-11.058,6.379,1.329,2.908,2.726,4.222,4.954,6.74,10.546,10.7,36.938,10.172,41.671-6.02a20.025,20.025,0,0,0,.442-9.98ZM75.193,59.064H61.576l-.062,35.207c0,7.488.387,14.352-.83,16.456-1.992,4.138-7.155,3.625-9.508,2.823-2.395-1.177-3.612-2.851-5.023-5.216a6.862,6.862,0,0,0-.776-1.246l-11.072,6.78a21.878,21.878,0,0,0,8.025,9.188c5.189,3.115,12.164,4.071,19.459,2.395a17.185,17.185,0,0,0,10.988-8.606c3.1-5.716,2.435-12.635,2.407-20.288C75.262,84.071,75.193,71.589,75.193,59.064Z" transform="translate(5.363 9.259)" fill="#323330"/>
        </g>
      </g>
    </g>
  </g>
</svg>
