<svg xmlns="http://www.w3.org/2000/svg" width="204" height="200" viewBox="0 0 204 200">
  <g id="Laravel" transform="translate(15159 9320)">
    <rect id="Rectangle_173" data-name="Rectangle 173" width="204" height="200" rx="11" transform="translate(-15159 -9320)" fill="none"/>
    <rect id="Rectangle_174" data-name="Rectangle 174" width="176" height="176" rx="13" transform="translate(-15146 -9307)" fill="#fff"/>
    <g id="surface1" transform="translate(-15115.359 -9285.35)">
      <path id="Path_47" data-name="Path 47" d="M26.027.137c-.2.078-5.941,3.348-12.746,7.258Q.912,14.508.574,14.867a2.42,2.42,0,0,0-.445.777c-.172.574-.184,84.7-.012,85.309a2.121,2.121,0,0,0,.449.77c.445.468,49.672,28.773,50.269,28.91a1.813,1.813,0,0,0,.9-.031c.672-.168,49.77-28.411,50.207-28.872a2.341,2.341,0,0,0,.45-.777c.086-.277.117-4.676.117-13.937V73.48l11.969-6.875c11.285-6.488,11.976-6.895,12.265-7.34l.3-.48V44.207c0-15.871.031-14.977-.6-15.551-.168-.149-5.918-3.5-12.789-7.461l-12.48-7.18H99.785L87.574,21.027c-6.723,3.867-12.437,7.172-12.715,7.352a2.673,2.673,0,0,0-.746.769l-.246.426-.055,13.734-.051,13.738L63.68,62.855c-5.547,3.188-10.164,5.828-10.262,5.852-.18.051-.191-1.258-.191-26.5V15.633l-.266-.457c-.332-.555,1.16.332-13.824-8.281C26.57-.332,26.871-.18,26.027.137Zm11.551,10.52c5.258,3.016,9.559,5.512,9.559,5.543s-4.609,2.7-10.242,5.934l-10.25,5.883-10.23-5.883C10.793,18.895,6.188,16.23,6.188,16.2s4.6-2.7,10.219-5.926L26.613,4.4l.7.383C27.711,5,32.332,7.641,37.578,10.656ZM110.73,24.191c5.536,3.188,10.114,5.82,10.157,5.863.117.105-20.184,11.773-20.461,11.762S80.1,30.246,80.105,30.105c.012-.16,20.184-11.766,20.386-11.734C100.586,18.395,105.195,21.016,110.73,24.191Zm-95.9,1.684,9.758,5.617L24.641,59.3l.051,27.816.238.375a2.523,2.523,0,0,0,.531.594c.16.117,5.59,3.211,12.062,6.863l11.758,6.641v11.765c0,6.457-.043,11.754-.1,11.754S38.977,119.3,26.6,112.176L4.105,99.238,4.074,59.465,4.055,19.7l.5.277C4.844,20.133,9.461,22.785,14.828,25.875ZM49.281,45.453V71.082l-.395.258c-.535.34-20.074,11.57-20.141,11.57-.031,0-.055-11.57-.055-25.715l.012-25.7L38.91,25.621c5.613-3.23,10.242-5.852,10.3-5.832C49.246,19.813,49.281,31.363,49.281,45.453Zm38.941-5.894,10.23,5.883V57.1c0,11.062-.012,11.656-.18,11.594-.109-.043-4.738-2.7-10.293-5.894L77.867,56.992V45.336c0-6.418.031-11.66.063-11.66S82.6,36.32,88.223,39.559Zm34.871,5.7c0,6.383-.043,11.648-.086,11.7-.074.117-20.309,11.777-20.438,11.777-.031,0-.062-5.242-.062-11.66V45.422l10.207-5.875c5.621-3.227,10.25-5.871,10.293-5.871S123.094,38.887,123.094,45.262ZM86.23,66.469c8.605,4.953,10.09,5.84,9.941,5.957-.1.063-3.359,1.938-7.242,4.156S74.988,84.531,66.57,89.328l-15.3,8.727-.488-.266c-2.922-1.6-19.875-11.242-19.875-11.316C30.9,86.313,75.766,60.531,75.945,60.6,76.031,60.629,80.66,63.27,86.23,66.469Zm12.2,21.09L98.4,99.238,75.914,112.176c-12.371,7.121-22.539,12.937-22.59,12.937s-.1-4.754-.1-11.754V101.594L75.766,88.742c12.383-7.066,22.559-12.852,22.613-12.863S98.441,81.133,98.434,87.559Zm0,0" fill="#f05340"/>
    </g>
  </g>
</svg>
