<svg xmlns="http://www.w3.org/2000/svg" width="204" height="200" viewBox="0 0 204 200">
  <g id="MicrosoftSQLServer" transform="translate(15188 8097)">
    <g id="Group_120" data-name="Group 120">
      <rect id="Rectangle_183" data-name="Rectangle 183" width="204" height="200" rx="11" transform="translate(-15188 -8097)" fill="none"/>
      <rect id="Rectangle_184" data-name="Rectangle 184" width="176" height="176" rx="13" transform="translate(-15175 -8084)" fill="#fff"/>
      <path id="MicrosoftSQLServer-2" data-name="MicrosoftSQLServer" d="M55.25,4.15c-.33.11-2.1.68-3.96,1.29-10,3.27-17.08,7.06-18.84,10.06a3.152,3.152,0,0,0-.4,3.01c.44,1.05,1.25,1.84,3.47,3.41a36.881,36.881,0,0,1,3.96,3.41,25.735,25.735,0,0,1,7.87,19.83Q46.84,58,35.32,70.85a82.6,82.6,0,0,1-10.71,9.71c-4.4,3.52-6.79,5.8-8.42,8.01-4.99,6.8-3.66,12.86,3.96,17.92,6.72,4.47,18.56,8.19,32.51,10.21,4.68.68,9.97,1.11,11.24.92l.89-.13,1.4-2.52c7.08-12.75,10.66-24.77,11.09-37.21a55.283,55.283,0,0,0-1.7-15.96,7.591,7.591,0,0,1-.35-1.3c.02-.02,2-.61,4.4-1.33a315.848,315.848,0,0,1,34.89-8.47,30.287,30.287,0,0,0,3.73-.78c.54-.53-1.03-2.98-3.58-5.61-9.43-9.73-26.09-17.14-45.64-20.29-3.77-.61-4.23-.83-5.63-2.68-2.22-2.94-4.31-7.97-7.16-17.17-.09-.28-.18-.28-.99-.02Zm1.3,3.46a27.546,27.546,0,0,1,1.77,6.17v.65l-.93-.11c-5.04-.58-13.08-1.83-14.79-2.29-.44-.12-.69-.29-.61-.42.13-.21,1.84-1.03,6.92-3.34,4.74-2.15,6.54-2.95,6.68-2.96a15.719,15.719,0,0,1,.96,2.3ZM45.89,13.92a117.2,117.2,0,0,0,11.62,2.1c.96,0,.85.08-3.67,2.84-3.49,2.12-3.89,2.32-4.77,2.32h-.96l-2.58-2.62c-3.13-3.17-5.25-5.49-5.25-5.75,0-.11.06-.14.15-.09s2.55.59,5.46,1.2Zm-4.54,2.91a27.217,27.217,0,0,1,2.62,3.31,52.93,52.93,0,0,1-7.08-1.75c-2.3-.71-2.58-.95-1.97-1.73a26.493,26.493,0,0,1,3.59-3.01C38.57,13.64,39.84,15.06,41.35,16.83Zm19.62,3.65c.6,1.43,1.06,2.59,1.04,2.61s-8.11-1.23-8.82-1.37a16.665,16.665,0,0,1,3.06-2.08,19.11,19.11,0,0,1,3.49-1.88,29.76,29.76,0,0,1,1.23,2.72ZM43.35,23.19c.16.16,2.09,6.36,2,6.44a29.069,29.069,0,0,1-2.04-2.38c-1.1-1.35-2.75-3.24-3.7-4.23L37.9,21.23l2.67.92C42.03,22.66,43.29,23.13,43.35,23.19Zm7.72.83c3.35.48,6.13.91,6.18.96s-1.98,1.62-4.5,3.5-4.6,3.38-4.63,3.35-.28-.81-.56-1.74-1-2.86-1.59-4.31-1.05-2.63-1.03-2.63S47.72,23.55,51.07,24.02Zm8.42,2.68c.74,1.73,1.03,3.39,1.15,6.7a25.214,25.214,0,0,1,.01,3.23c-.06,0-1.12-.37-2.35-.81-2.46-.89-7.28-2.48-7.85-2.59-.25-.05.91-1.16,3.96-3.79,2.38-2.05,4.4-3.72,4.49-3.72a2.5,2.5,0,0,1,.59.98Zm8.64.42c3.71.76,6.95,1.44,7.21,1.5.37.09-.52.65-4.44,2.8-2.7,1.48-5.76,3.16-6.8,3.75s-1.91,1.04-1.93,1.02a9.984,9.984,0,0,1,.24-1.23,12.589,12.589,0,0,0-.91-7.79c-.33-.69-.6-1.3-.6-1.35,0-.17.67-.05,7.23,1.3Zm10.11,4.53c-.19.84-.6,2.27-.93,3.2-.71,2.04-3.3,7.33-3.65,7.47a11.467,11.467,0,0,1-2.69-1.25c-1.33-.74-3.26-1.72-4.27-2.17l-1.84-.82,6.79-4.35c5.63-3.61,6.8-4.29,6.86-3.97a8.28,8.28,0,0,1-.27,1.89ZM83.2,30.1c7.04,2.02,14.47,4.75,14.04,5.16a13.99,13.99,0,0,1-2.04.68,158.051,158.051,0,0,0-16.16,5.58,10.613,10.613,0,0,1-2.05.77,28.177,28.177,0,0,1,.94-3.45,89.374,89.374,0,0,0,2.4-9.16c0-.28.1-.37.35-.3.18.05,1.31.37,2.52.72ZM52.93,37.4a40.631,40.631,0,0,1,4.17,1.59c1.25.63,1.26.64.9,1.03-.64.71-7.63,7.22-7.83,7.29a7.185,7.185,0,0,1-.18-2.38,70.992,70.992,0,0,0-.5-7.95c-.16-.73-.03-.72,3.44.42Zm44.7,1.29a91.492,91.492,0,0,1-5.9,8.44,75.467,75.467,0,0,1-6.05,6.74,8.35,8.35,0,0,1-1.27-1.59,32.51,32.51,0,0,0-7.15-7.61c-.22-.15-.35-.32-.3-.37s3.81-1.43,8.33-3.07c9.16-3.32,13.19-4.67,13.44-4.49a21.52,21.52,0,0,1-1.1,1.95Zm5.73-.43c6.32,4.41,10.62,7.98,12.18,10.11a4.277,4.277,0,0,1,.64,1.03c-.04.03-2.07.26-4.53.5-9.81.97-16.8,1.95-20.5,2.89-.99.25-1.82.44-1.83.43s.63-.82,1.46-1.81c4.28-5.13,8.14-10.47,9.58-13.24a5.38,5.38,0,0,1,.83-1.33,21.513,21.513,0,0,1,2.17,1.42ZM67.93,43.73a7.81,7.81,0,0,1,2.09,1.35c-.09.18-10.76,6.02-10.85,5.94-.02-.02.53-1.77,1.23-3.91s1.38-4.46,1.51-5.17l.24-1.3,1.8.96C64.95,42.13,66.72,43.08,67.93,43.73ZM59,44.07c-1.03,3.57-3.12,8.17-4.07,8.97-.22.18-.65-.07-2.06-1.21-.99-.8-2-1.59-2.27-1.77s-.45-.37-.41-.42c.73-.73,9.23-7.58,9.27-7.47a12.371,12.371,0,0,1-.46,1.9Zm19.32,6.21c1.61,1.07,5.17,4.26,4.98,4.46-.05.05-3.67,1.23-8.03,2.6s-9.22,2.94-10.8,3.47-2.89.95-2.9.93,1.09-1.28,2.46-2.81c3.57-3.98,7.24-8.25,8.54-9.93l1.12-1.45,1.47.79c.79.44,2.23,1.32,3.16,1.94Zm-8.26-2.29c-.1.13-1.06,1.35-2.14,2.72s-3.66,4.68-5.76,7.37l-3.81,4.9-.13-.83a31.5,31.5,0,0,0-1.59-5.81l-.49-1.07,2.42-1.21c2.5-1.25,7.71-4.08,10.15-5.5,1.54-.9,1.64-.94,1.35-.57ZM49.85,53.91c.99.51,1.92,1.17,1.92,1.38,0,.32-6.45,5.3-6.62,5.11a21.457,21.457,0,0,1,1.29-2.56,33.125,33.125,0,0,0,1.7-3.42c.18-.52.46-.94.6-.94a4.114,4.114,0,0,1,1.11.43Zm5.5,6.13c.45.87.91,3.32.67,3.54-.1.09-2.76,1.35-5.93,2.8s-7.28,3.4-9.17,4.34a29.356,29.356,0,0,1-3.17,1.48c.14-.13,2.21-1.86,4.61-3.86,4.64-3.86,9.93-8.47,10.9-9.49l.58-.61.57.55a5.464,5.464,0,0,1,.94,1.25Zm-5.21-.05c-.46.41-2.94,2.58-5.5,4.8S39,69.68,37.8,70.73c-2.42,2.11-2.42,2.11.67-1.92a24,24,0,0,1,7.07-6.58,37.764,37.764,0,0,1,5.31-2.99c.07-.01-.25.34-.71.75Zm24.03,2.12a43.715,43.715,0,0,1,.35,4.51l.12,3.32-.77-.36c-2.66-1.23-10.13-5.44-9.85-5.55,1.63-.65,9.7-3.33,9.79-3.24a5.773,5.773,0,0,1,.36,1.32Zm-6.34,5.94c3.11,1.83,5.68,3.35,5.72,3.38a4.09,4.09,0,0,1-.88.75c-.99.73-11.54,6.18-11.68,6.04a12.627,12.627,0,0,1,.31-2,59.778,59.778,0,0,0,.63-10.45c-.06-.71-.04-1.21.06-1.15s2.73,1.6,5.84,3.43Zm-8.6-1.34a28.231,28.231,0,0,1-.58,7.99c-.63,2.42-.99,3.43-1.26,3.52-.37.13-2.67-1.97-4.08-3.72s-3.28-5.08-3-5.35c.17-.16,8.39-3.55,8.64-3.56C59.03,65.58,59.16,66.09,59.23,66.71ZM49.15,71.66a28.654,28.654,0,0,0,5.04,6.6c1.4,1.41,1.75,1.87,1.53,2.01a70.056,70.056,0,0,1-8.11,3.79,68.457,68.457,0,0,1-7.8,2.7c-.04-.04.96-1.86,2.22-4.04,2.73-4.74,6.18-11.44,6.18-11.99C48.21,70.03,48.5,70.31,49.15,71.66Zm-5.16.11c-.05.14-.47,1.18-.92,2.33-1.94,4.92-5.71,11.6-6.55,11.6-.65,0-1.61-3.89-1.88-7.63l-.14-1.88,4.61-2.33c2.54-1.28,4.69-2.33,4.8-2.33.09-.01.13.1.08.24Zm30.78,4.55c.02,2.83-1.17,9.68-1.8,10.37-.26.29-3.19-.79-5.82-2.15-2.36-1.22-6.24-3.63-6.24-3.87a5.171,5.171,0,0,1,1.33-.68c1.4-.59,7.91-4.07,10.67-5.7l1.59-.94.14.72c.05.39.12,1.42.13,2.25ZM31.34,79.59a31.121,31.121,0,0,0,1.82,7.16,8.7,8.7,0,0,1,.56,1.7c-.34.31-14.19,4.12-16.02,4.41l-.87.14.13-.67a22.16,22.16,0,0,1,2.53-5.17,31.766,31.766,0,0,1,6.34-6.35,36.553,36.553,0,0,1,5.26-3.07C31.1,77.75,31.22,78.58,31.34,79.59Zm31.42,4.72a70.993,70.993,0,0,0,7.95,3.47l1.57.54-.99.5c-5.61,2.84-15.53,6.89-18.1,7.39-.57.11-.65.08-.54-.2.44-1.15,6.36-13.38,6.47-13.38.07-.01,1.72.76,3.64,1.68Zm-7.53-.46a64.881,64.881,0,0,1-2.88,8.23,49.453,49.453,0,0,1-3.06,5.77c-.15.15-3.53-1.76-5.13-2.9-1.8-1.28-5.74-5.08-5.63-5.43a43.705,43.705,0,0,1,5.33-2.05c6.09-2.1,9.5-3.37,10.49-3.88.96-.5,1.04-.47.88.26ZM72.26,90.3c-.06.42-.4,2.26-.77,4.12-1.16,5.83-2.57,9.81-3.47,9.81a92.5,92.5,0,0,1-12.47-3.03,15.832,15.832,0,0,1-4-1.88c-.33-.29-.16-.39,2.28-1.39,7.85-3.2,16.9-7.28,17.88-8.06.57-.45.66-.39.55.43ZM32.54,92.08a103.247,103.247,0,0,1-6.2,8.92l-2.97,4-.89-.64a19.055,19.055,0,0,1-4.06-4.42,10.882,10.882,0,0,1-1.57-4.66l-.06-1.07,1.47-.15a107.884,107.884,0,0,0,11.52-2.39c1.8-.47,3.3-.83,3.34-.8a5.833,5.833,0,0,1-.58,1.21Zm8.63,4.11c.99.71,2.35,1.61,3.05,2.02l1.27.74-.57.24c-.32.13-4.93,1.81-10.26,3.74-9.1,3.29-9.7,3.48-9.95,3.14a.923.923,0,0,1-.23-.48c.02-.07,2.48-3.24,5.47-7.07l5.43-6.95,2,1.67c1.12.93,2.8,2.24,3.79,2.95Zm2.24,10.45c-1.99,2.97-3.67,5.48-3.73,5.56-.15.2-3.33-.55-5.71-1.34a25.3,25.3,0,0,1-6.78-3.43l-.87-.75,1.96-.53c8.03-2.19,18.65-5,18.7-4.96C47.02,101.2,45.4,103.67,43.41,106.64Zm9.56-4.5a56.939,56.939,0,0,0,13.16,2.83l1.39.15-3.75,1.35c-9.36,3.38-16.94,5.75-20.76,6.49-1.07.21-2.05.38-2.16.38a12.368,12.368,0,0,1,1.71-2.32c2.86-3.49,5.96-7.46,6.78-8.68a4.392,4.392,0,0,1,.89-1.09c.09.01,1.31.4,2.74.89Zm13.95,7.88c-1.61,4.16-2.79,6.69-3.21,6.85-.8.31-11.85-1.32-15.22-2.23-2.24-.61-3.67-1.2-3.25-1.35.16-.06,1.76-.43,3.57-.84a140.83,140.83,0,0,0,18.46-5.61,3.894,3.894,0,0,1,.93-.32C68.22,106.55,67.65,108.12,66.92,110.02Z" transform="translate(-15142.078 -8056.812)"/>
    </g>
  </g>
</svg>
