<svg xmlns="http://www.w3.org/2000/svg" width="204" height="200" viewBox="0 0 204 200">
  <g id="MongoDB" transform="translate(15158 9826)">
    <rect id="Rectangle_169" data-name="Rectangle 169" width="204" height="200" rx="11" transform="translate(-15158 -9826)" fill="none"/>
    <rect id="Rectangle_170" data-name="Rectangle 170" width="176" height="176" rx="13" transform="translate(-15145 -9813)" fill="#fff"/>
    <g id="MongoDB-2" data-name="MongoDB" transform="translate(-15121 -9790)">
      <path id="Path_23" data-name="Path 23" d="M88.038,42.812a57.166,57.166,0,0,1,3.141,14.3A62.872,62.872,0,0,1,90.15,75.25a4.18,4.18,0,0,1-.164.48,8.107,8.107,0,0,0-1.208.012c-3.329.523-6.655,1.065-9.981,1.6-3.438.557-6.881,1.092-10.313,1.687-1.216.21-2.721-.041-3.212,1.641-.014.046-.154.054-.235.08L65.2,70.7l-.169-24.252,1.6-.275c2.62-.429,5.24-.864,7.862-1.281q4.693-.746,9.392-1.465c1.381-.215,2.764-.412,4.148-.618Z" fill="#439934" fill-rule="evenodd"/>
      <path id="Path_24" data-name="Path 24" d="M61.729,110.054c-1.69-1.453-3.439-2.842-5.059-4.37-8.717-8.222-15.093-17.9-18.233-29.566a47.843,47.843,0,0,1-1.627-9.792,55.3,55.3,0,0,1-.154-6.975A81.955,81.955,0,0,1,39.783,41.2l.1-.138a2.921,2.921,0,0,1,.516.7q2.638,7.77,5.242,15.551,8.187,24.45,16.376,48.9a3.9,3.9,0,0,0,.583.866l-.87,2.969Z" fill="#45a538" fill-rule="evenodd"/>
      <path id="Path_25" data-name="Path 25" d="M88.038,42.812c-1.384.206-2.768.4-4.149.616q-4.7.728-9.392,1.465c-2.622.417-5.242.852-7.862,1.281l-1.6.275L65.021,45.4c-.053-.859-.144-1.717-.154-2.576-.069-5.478-.112-10.956-.18-16.434q-.063-5.143-.175-10.285c-.043-2.13-.089-4.261-.185-6.388-.052-1.143-.236-2.28-.311-3.423-.042-.657.016-1.319.029-1.979C64.862,5.9,65.661,7.5,66.5,9.068c1.327,2.484,3.441,4.314,5.344,6.311A70.388,70.388,0,0,1,88.038,42.812Z" fill="#46a037" fill-rule="evenodd"/>
      <path id="Path_26" data-name="Path 26" d="M65.036,80.753c.081-.026.222-.034.235-.08.491-1.682,2-1.431,3.212-1.641,3.432-.594,6.875-1.13,10.313-1.687,3.326-.539,6.652-1.081,9.981-1.6a7.975,7.975,0,0,1,1.208-.012c-.622,2.22-1.112,4.488-1.9,6.647a74.16,74.16,0,0,1-3.131,7.182A49.142,49.142,0,0,1,78.6,99.321a89.964,89.964,0,0,1-6.2,6.548c-1.185,1.165-2.582,2.114-3.882,3.161l-.337-.23-1.214-1.038-1.256-2.753a41.4,41.4,0,0,1-1.394-9.838l.023-.561.171-2.426c.057-.828.133-1.655.168-2.485.129-2.982.241-5.964.359-8.946Z" fill="#409433" fill-rule="evenodd"/>
      <path id="Path_27" data-name="Path 27" d="M65.036,80.753c-.118,2.982-.23,5.964-.357,8.947-.035.83-.111,1.657-.168,2.485l-.765.289c-1.7-5-3.4-9.951-5.062-14.913-2.75-8.209-5.467-16.431-8.213-24.642q-3.328-9.941-6.7-19.867a3.356,3.356,0,0,0-.617-.826l4.9-9a5.251,5.251,0,0,1,.5.879q3.4,10.053,6.768,20.118,4.374,13.095,8.728,26.2a10.554,10.554,0,0,0,.491,1.062l.67-.78-.167,10.052Z" fill="#4faa41" fill-rule="evenodd"/>
      <path id="Path_28" data-name="Path 28" d="M43.155,32.227a3.4,3.4,0,0,1,.617.826q3.373,9.926,6.7,19.867c2.746,8.211,5.463,16.433,8.213,24.642,1.662,4.961,3.362,9.911,5.062,14.913l.765-.289-.171,2.426-.155.559c-.266,2.656-.49,5.318-.814,7.968-.163,1.328-.509,2.632-.772,3.947a3.931,3.931,0,0,1-.583-.866q-8.2-24.446-16.376-48.9-2.6-7.781-5.242-15.551a2.9,2.9,0,0,0-.516-.7l3.272-8.84Z" fill="#4aa73c" fill-rule="evenodd"/>
      <path id="Path_29" data-name="Path 29" d="M65.2,70.7l-.67.78a10.657,10.657,0,0,1-.491-1.062q-4.37-13.1-8.728-26.2Q51.948,34.157,48.546,24.1a5.142,5.142,0,0,0-.5-.879L54.1,15.26a3.262,3.262,0,0,1,.562.769q2.521,7.381,5,14.778c1.547,4.6,3.071,9.215,4.636,13.813.105.308.47.526.714.786l.012,1.045Q65.118,58.574,65.2,70.7Z" fill="#57ae47" fill-rule="evenodd"/>
      <path id="Path_30" data-name="Path 30" d="M65.021,45.4c-.244-.26-.609-.478-.714-.786-1.565-4.6-3.089-9.209-4.636-13.813q-2.484-7.4-5-14.778a3.262,3.262,0,0,0-.562-.769c1.969-1.928,3.877-3.925,5.925-5.764,1.821-1.634,3.285-3.386,3.352-5.968a3.169,3.169,0,0,1,.145-.514l.519,1.306c-.013.661-.072,1.322-.029,1.979.075,1.143.259,2.28.311,3.423.1,2.127.142,4.258.185,6.388q.1,5.142.175,10.285c.067,5.478.111,10.956.18,16.434.008.861.1,1.718.152,2.577Z" fill="#60b24f" fill-rule="evenodd"/>
      <path id="Path_31" data-name="Path 31" d="M62.6,107.085c.263-1.315.609-2.62.772-3.947.325-2.649.548-5.312.814-7.968l.066-.01.066.011a41.4,41.4,0,0,0,1.394,9.838,3.008,3.008,0,0,0-.518.7c-.727,2.05-1.412,4.116-2.143,6.166a3.058,3.058,0,0,1-.574.744l-.747-2.566.87-2.969Z" fill="#a9aa88" fill-rule="evenodd"/>
      <path id="Path_32" data-name="Path 32" d="M62.476,112.621a3.033,3.033,0,0,0,.574-.744c.731-2.05,1.417-4.115,2.143-6.166a2.98,2.98,0,0,1,.518-.7l1.255,2.754a4.89,4.89,0,0,0-.728,1.061l-2.4,7.059c-.1.283-.437.483-.663.722l-.695-3.985Z" fill="#b6b598" fill-rule="evenodd"/>
      <path id="Path_33" data-name="Path 33" d="M63.171,116.605c.227-.238.564-.439.663-.722l2.4-7.059a4.879,4.879,0,0,1,.728-1.061l1.215,1.037a2.134,2.134,0,0,0-.717,2.1l-.369,1.208a2.49,2.49,0,0,0-.494.624c-.839,2.4-1.64,4.819-2.485,7.222a3.324,3.324,0,0,1-.614.812q-.164-2.081-.331-4.158Z" fill="#c2c1a7" fill-rule="evenodd"/>
      <path id="Path_34" data-name="Path 34" d="M63.5,120.763a3.415,3.415,0,0,0,.614-.812c.845-2.4,1.646-4.818,2.485-7.222a2.485,2.485,0,0,1,.494-.624l-.509,5.545c-.136.157-.333.294-.4.477-.575,1.614-1.117,3.24-1.694,4.854a6.2,6.2,0,0,1-.525.938c-.158-.207-.441-.407-.454-.623-.051-.841-.016-1.688-.013-2.533Z" fill="#cecdb7" fill-rule="evenodd"/>
      <path id="Path_35" data-name="Path 35" d="M63.969,123.919a6.3,6.3,0,0,0,.525-.938c.578-1.613,1.119-3.239,1.694-4.854.065-.183.263-.319.4-.477l.012,3.64-1.218,3.124-1.411-.5Z" fill="#dbdac7" fill-rule="evenodd"/>
      <path id="Path_36" data-name="Path 36" d="M65.38,124.415l1.218-3.124.251,3.7Z" fill="#ebe9dc" fill-rule="evenodd"/>
      <path id="Path_37" data-name="Path 37" d="M67.464,110.9a2.131,2.131,0,0,1,.717-2.1l.337.23Z" fill="#cecdb7" fill-rule="evenodd"/>
      <path id="Path_38" data-name="Path 38" d="M64.316,95.172l-.066-.011-.066.01.155-.559-.023.56Z" fill="#4faa41" fill-rule="evenodd"/>
    </g>
  </g>
</svg>
