<svg xmlns="http://www.w3.org/2000/svg" width="204" height="200" viewBox="0 0 204 200">
  <g id="MySQL" transform="translate(15159 9089)">
    <rect id="Rectangle_175" data-name="Rectangle 175" width="204" height="200" rx="11" transform="translate(-15159 -9089)" fill="none"/>
    <rect id="Rectangle_176" data-name="Rectangle 176" width="176" height="176" rx="13" transform="translate(-15146 -9076)" fill="#fff"/>
    <path id="MySQL-2" data-name="MySQL" d="M116.948,97.807c-6.863-.187-12.1.452-16.585,2.341-1.273.537-3.305.552-3.513,2.147.7.733.809,1.829,1.365,2.731a21.542,21.542,0,0,0,4.488,5.268c1.762,1.33,3.577,2.751,5.465,3.9,3.358,2.047,7.107,3.217,10.34,5.268,1.906,1.21,3.8,2.733,5.658,4.1.92.675,1.537,1.724,2.732,2.147v-.194c-.628-.8-.79-1.9-1.366-2.733l-2.537-2.537a41.6,41.6,0,0,0-8.976-8.585c-2.669-1.916-8.642-4.5-9.755-7.609l-.195-.195a42.873,42.873,0,0,0,5.854-1.367c2.934-.786,5.556-.583,8.585-1.365l4.1-1.171v-.78c-1.531-1.571-2.623-3.651-4.292-5.073a125.509,125.509,0,0,0-14.048-10.537c-2.724-1.718-6.089-2.835-8.976-4.292-.971-.491-2.677-.746-3.318-1.562-1.517-1.932-2.342-4.382-3.511-6.633-2.449-4.717-4.854-9.868-7.024-14.831-1.48-3.384-2.447-6.72-4.293-9.756-8.86-14.567-18.4-23.358-33.169-32-3.144-1.838-6.929-2.563-10.929-3.513q-3.218-.193-6.438-.391c-1.311-.546-2.673-2.149-3.9-2.927C17.811,4.565,5.257-2.16,1.633,6.682-.656,12.263,5.054,17.707,7.095,20.536a41.736,41.736,0,0,1,4.293,6.438c.674,1.467.79,2.938,1.367,4.489,1.417,3.822,2.652,7.98,4.487,11.511a40.575,40.575,0,0,0,3.122,5.268c.718.981,1.951,1.413,2.145,2.927-1.2,1.686-1.273,4.3-1.95,6.44-3.05,9.615-1.9,21.567,2.537,28.683,1.36,2.186,4.567,6.871,8.975,5.073,3.856-1.57,2.995-6.438,4.1-10.732.249-.973.1-1.689.585-2.341v.195l3.513,7.024c2.6,4.187,7.212,8.562,11.122,11.514,2.027,1.531,3.623,4.177,6.244,5.073v-.2h-.195c-.508-.791-1.3-1.119-1.951-1.755A44.65,44.65,0,0,1,51,95.074a118.735,118.735,0,0,1-9.561-15.609c-1.368-2.627-2.557-5.523-3.709-8.2-.444-1.03-.438-2.589-1.364-3.122C35.1,70.1,33.244,71.689,32.268,74c-1.561,3.7-1.762,8.2-2.341,12.878-.342.122-.19.038-.391.194-2.718-.655-3.672-3.452-4.683-5.853-2.554-6.07-3.029-15.842-.781-22.829.582-1.809,3.21-7.5,2.146-9.172-.508-1.666-2.184-2.63-3.121-3.9a30.778,30.778,0,0,1-3.124-5.464c-2.09-4.731-3.066-10.044-5.267-14.828a43.354,43.354,0,0,0-4.293-6.634C8.8,16.137,6.984,14.478,5.73,11.755c-.446-.968-1.051-2.518-.391-3.513A1.547,1.547,0,0,1,6.51,7.072c1.132-.873,4.284.29,5.462.779a47.6,47.6,0,0,1,8.392,4.294c1.271.844,2.559,2.475,4.1,2.927h1.756c2.747.631,5.824.195,8.391.975A50.7,50.7,0,0,1,46.9,21.9,76.108,76.108,0,0,1,73.632,51.17c1.012,1.942,1.45,3.794,2.341,5.854,1.8,4.153,4.063,8.426,5.852,12.488s3.526,8.141,6.05,11.513c1.327,1.772,6.451,2.723,8.781,3.708,1.632.689,4.307,1.409,5.854,2.34,2.953,1.782,5.815,3.9,8.586,5.855,1.383.975,5.64,3.116,5.852,4.879ZM29.729,23.466a13.954,13.954,0,0,0-3.513.389v.195h.195c.683,1.4,1.888,2.306,2.731,3.513q.975,2.051,1.952,4.1l.194-.193c1.209-.853,1.762-2.214,1.755-4.294-.484-.509-.555-1.147-.975-1.755C31.512,24.607,30.433,24.146,29.729,23.466Z" transform="translate(-15119 -9052.998)" fill="#00618a"/>
  </g>
</svg>
