<svg xmlns="http://www.w3.org/2000/svg" width="204" height="200" viewBox="0 0 204 200">
  <g id="PHP" transform="translate(15158 9579)">
    <rect id="Rectangle_171" data-name="Rectangle 171" width="204" height="200" rx="11" transform="translate(-15158 -9579)" fill="none"/>
    <rect id="Rectangle_172" data-name="Rectangle 172" width="176" height="176" rx="13" transform="translate(-15145 -9566)" fill="#fff"/>
    <g id="PHP-2" data-name="PHP" transform="translate(-15121 -9542)">
      <path id="Path_39" data-name="Path 39" d="M0,64C0,82.593,28.654,97.667,64,97.667S128,82.593,128,64,99.345,30.333,64,30.333,0,45.407,0,64Z" fill="#fff"/>
      <path id="Path_40" data-name="Path 40" d="M64,95.167c33.965,0,61.5-13.955,61.5-31.167S97.965,32.833,64,32.833,2.5,46.786,2.5,64,30.035,95.167,64,95.167Z" fill="#777bb3"/>
      <path id="Path_41" data-name="Path 41" d="M34.772,67.864c2.793,0,4.877-.515,6.2-1.53a8.287,8.287,0,0,0,2.68-5.175c.44-2.27.272-3.854-.5-4.71-.788-.874-2.493-1.317-5.067-1.317H33.617L31.144,67.864Zm-14.6,15.683a.694.694,0,0,1-.68-.828L26.05,48.981a.7.7,0,0,1,.68-.561H40.864c4.442,0,7.748,1.206,9.827,3.585s2.734,5.734,1.917,9.935a15.364,15.364,0,0,1-4.828,8.644,13.718,13.718,0,0,1-5.147,3.083,23.293,23.293,0,0,1-7.07.91H29.839L28.2,82.985a.7.7,0,0,1-.682.562Z"/>
      <path id="Path_42" data-name="Path 42" d="M34.19,55.826h3.891c3.107,0,4.186.682,4.553,1.089.607.674.723,2.1.331,4.112a7.632,7.632,0,0,1-2.42,4.756c-1.194.92-3.138,1.386-5.773,1.386H31.986l2.205-11.342Zm6.674-8.1H26.731a1.39,1.39,0,0,0-1.364,1.123L18.81,82.588a1.39,1.39,0,0,0,1.363,1.653h7.35a1.39,1.39,0,0,0,1.363-1.124l1.525-7.846h5.151a24,24,0,0,0,7.287-.944,14.4,14.4,0,0,0,5.406-3.237,16.047,16.047,0,0,0,5.034-9.018c.86-4.423.161-7.964-2.076-10.524-2.216-2.537-5.7-3.823-10.349-3.823ZM30.3,68.557h4.471q4.445,0,6.62-1.675t2.938-5.591q.728-3.762-.665-5.308t-5.584-1.546H33.045L30.3,68.557M40.865,49.112q6.378,0,9.3,3.348t1.76,9.346a14.676,14.676,0,0,1-4.616,8.265,12.984,12.984,0,0,1-4.892,2.935,22.552,22.552,0,0,1-6.857.875h-6.3l-1.743,8.97h-7.35l6.558-33.739H40.865" fill="#fff"/>
      <path id="Path_43" data-name="Path 43" d="M69.459,74.577a.694.694,0,0,1-.682-.827l2.9-14.928c.277-1.42.209-2.438-.19-2.87-.245-.263-.979-.7-3.15-.7H63.081L59.435,74.016a.7.7,0,0,1-.683.56h-7.29a.7.7,0,0,1-.683-.826l6.558-33.739a.7.7,0,0,1,.682-.561h7.29a.695.695,0,0,1,.683.826L64.41,48.42h5.653c4.307,0,7.227.758,8.928,2.321,1.733,1.593,2.275,4.14,1.608,7.573l-3.051,15.7a.7.7,0,0,1-.682.56H69.459Z"/>
      <path id="Path_44" data-name="Path 44" d="M65.31,38.755H58.019a1.39,1.39,0,0,0-1.364,1.124L50.1,73.617a1.39,1.39,0,0,0,1.363,1.654h7.291a1.39,1.39,0,0,0,1.364-1.124l3.537-18.205h4.682c2.168,0,2.624.463,2.641.484.132.14.305.795.019,2.264l-2.9,14.927a1.39,1.39,0,0,0,1.364,1.654h7.408a1.39,1.39,0,0,0,1.363-1.124l3.051-15.7c.715-3.686.1-6.45-1.82-8.217-1.836-1.686-4.91-2.505-9.4-2.505h-4.81l1.421-7.315a1.39,1.39,0,0,0-1.364-1.655Zm0,1.39-1.743,8.968h6.5q6.13,0,8.457,2.14t1.4,6.93l-3.052,15.7H69.459l2.9-14.928q.5-2.547-.365-3.474t-3.658-.926H62.508L58.752,73.881H51.46l6.558-33.739H65.31Z" fill="#fff"/>
      <path id="Path_45" data-name="Path 45" d="M92.136,67.864c2.793,0,4.878-.515,6.2-1.53a8.3,8.3,0,0,0,2.679-5.175c.44-2.27.273-3.854-.5-4.71-.788-.874-2.493-1.317-5.067-1.317H90.983L88.508,67.864ZM77.54,83.547a.694.694,0,0,1-.682-.828l6.557-33.738a.7.7,0,0,1,.682-.561H98.23c4.442,0,7.748,1.206,9.826,3.585s2.734,5.734,1.917,9.935a15.355,15.355,0,0,1-4.827,8.644A13.718,13.718,0,0,1,100,73.667a23.3,23.3,0,0,1-7.071.91H87.205l-1.633,8.408a.7.7,0,0,1-.683.562Z"/>
      <path id="Path_46" data-name="Path 46" d="M91.555,55.826h3.891c3.107,0,4.186.682,4.552,1.089.61.674.724,2.1.333,4.112a7.637,7.637,0,0,1-2.421,4.756c-1.195.92-3.139,1.386-5.773,1.386H89.351l2.2-11.342Zm6.674-8.1H84.1a1.39,1.39,0,0,0-1.363,1.123L76.175,82.588a1.39,1.39,0,0,0,1.364,1.653h7.35a1.39,1.39,0,0,0,1.363-1.124l1.525-7.846h5.15a24,24,0,0,0,7.286-.944,14.4,14.4,0,0,0,5.408-3.238,16.046,16.046,0,0,0,5.033-9.017c.86-4.423.162-7.964-2.076-10.524-2.216-2.537-5.7-3.823-10.35-3.823ZM87.666,68.557h4.47q4.446,0,6.622-1.675t2.936-5.591q.73-3.762-.665-5.308t-5.583-1.546H90.411ZM98.229,49.112q6.376,0,9.3,3.348t1.759,9.346a14.66,14.66,0,0,1-4.616,8.265,12.976,12.976,0,0,1-4.892,2.935,22.536,22.536,0,0,1-6.856.875H86.632l-1.745,8.97h-7.35L84.1,49.112H98.228" fill="#fff"/>
    </g>
  </g>
</svg>
