<svg xmlns="http://www.w3.org/2000/svg" width="204" height="200" viewBox="0 0 204 200">
  <g id="PostgresSQL" transform="translate(15192 7870)">
    <rect id="Rectangle_185" data-name="Rectangle 185" width="204" height="200" rx="11" transform="translate(-15192 -7870)" fill="none"/>
    <rect id="Rectangle_186" data-name="Rectangle 186" width="176" height="176" rx="13" transform="translate(-15179 -7857)" fill="#fff"/>
    <g id="PostgresSQL-2" data-name="PostgresSQL" transform="translate(-15158.266 -7824.744)">
      <path id="Path_91" data-name="Path 91" d="M93.809,92.112c.785-6.533.55-7.492,5.416-6.433l1.235.108a28.158,28.158,0,0,0,11.513-1.938c6.191-2.873,9.861-7.668,3.758-6.409C101.807,80.313,100.85,75.6,100.85,75.6c14.7-21.815,20.849-49.508,15.543-56.287C101.923.822,76.876,9.565,76.457,9.791l-.134.025a49.623,49.623,0,0,0-9.289-.968c-6.3-.1-11.082,1.652-14.709,4.4,0,0-44.683-18.409-42.6,23.151.442,8.841,12.672,66.9,27.26,49.362,5.332-6.412,10.484-11.834,10.484-11.834A13.524,13.524,0,0,0,56.3,76.184l.249-.212a9.669,9.669,0,0,0,.1,2.5c-3.757,4.2-2.653,4.936-10.166,6.482-7.6,1.566-3.136,4.355-.221,5.084,3.535.884,11.712,2.136,17.238-5.6l-.22.882c1.474,1.18,1.375,8.477,1.583,13.69s.558,10.079,1.621,12.948,2.317,10.256,12.191,8.14c8.252-1.764,14.561-4.309,15.136-27.985"/>
      <path id="Path_92" data-name="Path 92" d="M75.458,125.256a12.579,12.579,0,0,1-8.938-3.32,17.16,17.16,0,0,1-4.259-7.522l-.267-.79c-1.244-3.358-1.666-8.193-1.916-14.419-.038-.935-.064-1.9-.093-2.919-.021-.747-.047-1.684-.085-2.664a18.8,18.8,0,0,1-4.962,1.568,23.885,23.885,0,0,1-9.84-.507,11.485,11.485,0,0,1-6.407-3.82c-4.2,3.681-8.212,3.182-10.4,2.453-3.853-1.285-7.3-4.9-10.542-11.037a99,99,0,0,1-6.638-16.943C7.465,53.376,5.146,40.779,4.94,36.643,4.292,23.7,7.777,14.44,15.3,9.129,27.157.751,45.128,5.678,51.68,7.915A28.5,28.5,0,0,1,67.113,4.064a56.135,56.135,0,0,1,8.916.823A51.229,51.229,0,0,1,91.214,2.748c12.081.144,22.092,4.852,28.949,13.615,4.894,6.252,2.474,19.381.6,26.651A119.164,119.164,0,0,1,107.8,73.584a33.837,33.837,0,0,0,6.961-.831c6.274-1.295,8.109,2.069,8.607,3.575,2,6.042-6.677,10.608-9.382,11.864a32.863,32.863,0,0,1-13.745,2.377l-.2-.013-1.216-.107-.12,1.014-.116.991c-.311,12-2.025,19.6-5.552,24.619-3.7,5.264-8.835,6.739-13.361,7.709a20.188,20.188,0,0,1-4.219.474Zm-9.19-43.671c2.819,2.256,3.066,6.5,3.287,14.434.028.99.054,1.927.089,2.8.106,2.65.355,8.855,1.327,11.477.137.371.26.747.39,1.146,1.083,3.316,1.626,4.979,6.309,3.978,3.931-.843,5.952-1.6,7.534-3.851,2.3-3.274,3.585-9.86,3.821-19.575l4.783.116-4.75-.57.14-1.186c.455-3.91.783-6.734,3.4-8.6a8.113,8.113,0,0,1,6.389-1.01,7.153,7.153,0,0,1-2.823-4.193l-.4-1.965,1.121-1.663a108.958,108.958,0,0,0,14.609-32.3c2.906-11.251,2.02-17.226,1.134-18.356-11.729-14.987-32.068-8.8-34.192-8.1l-.359.194-1.8.335-.922-.191a45.117,45.117,0,0,0-8.393-.869c-4.756-.08-8.593,1.044-11.739,3.431l-2.183,1.655L50.5,17.678c-5.412-2.213-21.308-6.662-29.7-.721-4.656,3.3-6.777,9.76-6.305,19.207.156,3.119,2.275,14.926,5.771,26.377C25.105,78.366,29.5,83.623,31.328,84.234c.32.108,1.15-.537,1.976-1.529Q38.47,76.512,44,70.635l2.77-2.915,3.349,2.225a8.87,8.87,0,0,0,4.368,1.5l7.987-6.812L61.315,76.443a4.857,4.857,0,0,0,.065,1.3l.348,2.238-1.51,1.688-.174.2,4.388,2.025,1.836-2.3Z"/>
      <path id="Path_93" data-name="Path 93" d="M115.731,77.44c-13.925,2.873-14.882-1.842-14.882-1.842,14.7-21.816,20.849-49.51,15.545-56.287C101.924.823,76.875,9.566,76.457,9.793l-.135.024a49.631,49.631,0,0,0-9.291-.967c-6.3-.1-11.08,1.652-14.707,4.4,0,0-44.684-18.408-42.606,23.151.442,8.842,12.672,66.9,27.26,49.363,5.332-6.412,10.483-11.834,10.483-11.834a13.524,13.524,0,0,0,8.833,2.255l.25-.212a9.717,9.717,0,0,0,.1,2.5c-3.758,4.2-2.654,4.936-10.167,6.482-7.6,1.566-3.136,4.355-.22,5.084,3.534.884,11.712,2.136,17.237-5.6l-.221.882c1.473,1.18,2.507,7.672,2.334,13.557s-.29,9.926.871,13.082,2.316,10.256,12.192,8.14c8.252-1.768,12.528-6.351,13.124-14,.422-5.435,1.377-4.631,1.438-9.49l.767-2.3c.884-7.367.14-9.743,5.225-8.638l1.235.108a28.16,28.16,0,0,0,11.514-1.938C118.163,80.977,121.834,76.181,115.731,77.44Z" fill="#336791"/>
      <path id="Path_94" data-name="Path 94" d="M75.957,122.307c-8.232,0-10.84-6.519-11.907-9.185-1.562-3.907-1.9-19.069-1.551-31.5a1.6,1.6,0,1,1,3.19.089c-.4,14.341.168,27.337,1.324,30.229,1.8,4.509,4.54,8.453,12.275,6.8,7.343-1.575,10.093-4.359,11.318-11.46.94-5.449,2.8-20.951,3.028-24.01a1.6,1.6,0,1,1,3.182.238c-.239,3.185-2.089,18.657-3.065,24.315-1.446,8.387-5.185,12.191-13.794,14.037a19.2,19.2,0,0,1-4,.454ZM31.321,90.466a6.71,6.71,0,0,1-2.116-.35c-5.347-1.784-10.44-10.492-15.138-25.885C10.491,52.514,8.225,40.284,8.026,36.309c-.589-11.784,2.445-20.121,9.02-24.778,13.007-9.216,34.888-.44,35.813-.062a1.6,1.6,0,1,1-1.207,2.955c-.211-.086-21.193-8.492-32.768-.285-5.622,3.986-8.2,11.392-7.672,22.011C11.379,39.5,13.5,51.435,17.118,63.3c4.194,13.742,8.967,22.413,13.1,23.79.648.216,2.62.873,5.439-2.517Q40.584,78.65,45.88,73.046a1.6,1.6,0,0,1,2.3,2.208c-.048.05-4.847,5.067-10.077,11.359-2.477,2.979-4.851,3.853-6.786,3.853ZM100.75,77.021a1.6,1.6,0,0,1-1.322-2.487c14.863-22.055,20.08-48.7,15.612-54.414-5.624-7.186-13.565-10.939-23.6-11.156a44.354,44.354,0,0,0-14.307,2.069l-.243.1A1.6,1.6,0,0,1,75.52,8.258a3.783,3.783,0,0,1,.429-.176l-.021.006.021-.007A46.3,46.3,0,0,1,91.017,5.766c11.108.118,20.284,4.4,26.534,12.388,2.957,3.779,2.964,12.485.019,23.887a115.629,115.629,0,0,1-15.5,34.277,1.588,1.588,0,0,1-1.323.7Zm.76,10.21a12.907,12.907,0,0,1-6.175-1.174,3.2,3.2,0,0,1-1.7-2.584c-.382-6.71,3.32-7.878,5.208-8.411-.263-.4-.637-.866-1.024-1.349a23.793,23.793,0,0,1-3.771-6.078c-.182-.44-.752-1.463-1.412-2.648-3.579-6.418-11.026-19.773-6.242-26.612,2.214-3.165,6.623-4.411,13.119-3.716C97.6,28.837,88.5,10.625,66.907,10.271c-6.494-.108-11.82,1.889-15.822,5.93-8.96,9.049-8.636,25.422-8.631,25.586a1.6,1.6,0,1,1-3.19.084c-.02-.727-.354-17.909,9.554-27.916,4.637-4.683,10.741-7,18.142-6.874a36.54,36.54,0,0,1,27.732,13.1c5.479,6.377,8.165,13.411,8.386,15.759a1.779,1.779,0,0,1-1.341,2.147l-.576.013c-6.375-1.021-10.465-.312-12.156,2.1-3.639,5.2,3.406,17.834,6.414,23.229.768,1.376,1.322,2.371,1.576,2.985a20.741,20.741,0,0,0,3.312,5.3A9,9,0,0,1,102.289,75c.131.23,1.99,2.98,13.021.7,2.765-.57,4.423-.083,4.93,1.45,1,3.015-4.6,6.532-7.694,7.97a28.911,28.911,0,0,1-11.036,2.106Zm-4.7-4.021c.35.353,2.1.962,5.727.806a25.307,25.307,0,0,0,8.664-1.786,18.265,18.265,0,0,0,5.253-3.492l-.5.092c-7.053,1.456-12.042,1.262-14.828-.577a6.162,6.162,0,0,1-.54-.4,7.878,7.878,0,0,1-.78.253c-1.58.443-3.214.9-3,5.105ZM51.252,92.125a22.666,22.666,0,0,1-5.479-.71c-1.951-.488-5.24-1.957-5.19-4.37.057-2.707,3.994-3.519,5.476-3.824,5.354-1.1,5.7-1.545,7.376-3.67.488-.619,1.1-1.39,1.923-2.314a5.369,5.369,0,0,1,3.992-2.073,5.943,5.943,0,0,1,2.336.558,6.864,6.864,0,0,1,3.719,4.467A5.73,5.73,0,0,1,64.7,85.2a15.928,15.928,0,0,1-13.443,6.93ZM44.03,87.182a7.447,7.447,0,0,0,2.518,1.137,19.471,19.471,0,0,0,4.705.615A12.7,12.7,0,0,0,62.1,83.34a2.7,2.7,0,0,0,.239-2.274,3.792,3.792,0,0,0-1.873-2.4,3.112,3.112,0,0,0-1.115-.314c-.176,0-.712,0-1.614,1.009q-.934,1.05-1.794,2.162C53.859,84.172,52.9,85.07,46.7,86.347a10,10,0,0,0-2.674.835ZM56.3,79.822a1.6,1.6,0,0,1-1.575-1.354q-.06-.4-.08-.8a15.6,15.6,0,0,1-10.962-4.926,17.83,17.83,0,0,1-4.7-14.927,70.388,70.388,0,0,0,.359-14.229c-.047-.8-.081-1.371-.079-1.769,0-.505.013-1.844,4.489-4.113a24.946,24.946,0,0,1,8.271-2.576c5.777-.6,9.585,1.976,10.725,7.246,3.077,14.228.244,20.521-1.825,25.117-.385.856-.749,1.664-1.04,2.447l-.257.69c-1.093,2.931-2.038,5.463-1.748,7.354A1.6,1.6,0,0,1,56.543,79.8l-.244.02ZM42.464,42.26l.062,1.139a73.406,73.406,0,0,1-.384,14.86,14.656,14.656,0,0,0,3.843,12.276,12.407,12.407,0,0,0,8.94,3.945h.068a43.572,43.572,0,0,1,1.642-4.966l.255-.686c.329-.884.714-1.74,1.122-2.646,1.991-4.424,4.47-9.931,1.615-23.132-.565-2.615-1.936-4.128-4.189-4.627C50.81,37.4,43.913,40.882,42.464,42.26Zm9.63-.677c-.08.564,1.033,2.07,2.485,2.271a2.675,2.675,0,0,0,2.768-1.539c.079-.564-1.033-1.186-2.485-1.388s-2.691.092-2.768.656Zm2.818,2.826-.407-.028a3.832,3.832,0,0,1-2.433-1.518,2.073,2.073,0,0,1-.505-1.354c.1-.736,1-1.177,2.4-1.177a7,7,0,0,1,.967.069,5.883,5.883,0,0,1,2,.62c.91.508.977,1.075.936,1.368A3.105,3.105,0,0,1,54.912,44.409Zm-2.289-2.732a2.8,2.8,0,0,0,2.029,1.651l.261.018a2.3,2.3,0,0,0,1.9-1.082,3.22,3.22,0,0,0-2.025-.81,5.823,5.823,0,0,0-.821-.059,2.3,2.3,0,0,0-1.345.282Zm43.6-1.245c.079.564-1.033,2.07-2.484,2.272a2.681,2.681,0,0,1-2.771-1.539c-.076-.564,1.036-1.187,2.486-1.388s2.689.092,2.769.655Zm-2.819,2.56a2.87,2.87,0,0,1-2.7-1.791c-.115-.846,1.278-1.489,2.712-1.688a6.772,6.772,0,0,1,.93-.066c1.238,0,2.058.363,2.14.949a2.17,2.17,0,0,1-.739,1.492,3.5,3.5,0,0,1-1.973,1.079Zm.943-3.013a6.339,6.339,0,0,0-.856.061c-1.441.2-2.3.779-2.259,1.089a2.468,2.468,0,0,0,2.173,1.332l.3-.021a2.963,2.963,0,0,0,1.66-.919,1.838,1.838,0,0,0,.6-1.052c-.028-.2-.56-.49-1.613-.49Zm3.965,32.843a1.594,1.594,0,0,1-1.324-2.483c3.4-5.075,2.776-10.25,2.175-15.255a43.233,43.233,0,0,1-.453-6.453,45.17,45.17,0,0,1,.614-5.71,29.15,29.15,0,0,0,.493-6.31,1.6,1.6,0,1,1,3.186-.172,32.111,32.111,0,0,1-.525,6.967,42.346,42.346,0,0,0-.578,5.327,40.3,40.3,0,0,0,.431,5.97c.64,5.322,1.365,11.354-2.691,17.411a1.6,1.6,0,0,1-1.328.708Z" fill="#fff"/>
    </g>
  </g>
</svg>
