<svg xmlns="http://www.w3.org/2000/svg" width="204" height="200" viewBox="0 0 204 200">
  <g id="Vue.js" transform="translate(15156 10759)">
    <g id="Group_115" data-name="Group 115" transform="translate(-1340 -445)">
      <g id="_2" data-name="2" transform="translate(-342 172)">
        <rect id="Rectangle_166" data-name="Rectangle 166" width="204" height="200" rx="11" transform="translate(-13474 -10486)" fill="none"/>
        <rect id="Rectangle_156" data-name="Rectangle 156" width="176" height="176" rx="13" transform="translate(-13461 -10473)" fill="#fff"/>
        <g id="Vue.js-2" data-name="Vue.js" transform="translate(-13436 -10439.934)">
          <path id="Path_26" data-name="Path 26" d="M0,8.934l49.854.158,14.167,24.47L78.453,9.092,128,8.935,64.166,119.075Zm126.98.637-24.36.02L64.144,75.644,25.691,9.592.942,9.572l63.211,107.89Zm-25.149-.008-22.745.168L64.033,34.378,49.216,9.73,26.422,9.562,64.153,74.038ZM26,9.393,49,9.4M26,9.39,49,9.4" fill="none"/>
          <path id="Path_27" data-name="Path 27" d="M26,9.393,49,9.4,64.035,34.36,79.018,9.4H102L64.15,75.053Z" fill="#35495e"/>
          <path id="Path_28" data-name="Path 28" d="M.91,9.569,25.977,9.4l38.15,65.659L101.98,9.4l25.11.026L64.124,117.487Z" fill="#41b883"/>
        </g>
      </g>
    </g>
  </g>
</svg>
