<svg xmlns="http://www.w3.org/2000/svg" xmlns:xlink="http://www.w3.org/1999/xlink" width="204" height="200" viewBox="0 0 204 200">
  <defs>
    <linearGradient id="linear-gradient" x1="0.333" y1="0.007" x2="0.58" y2="0.773" gradientUnits="objectBoundingBox">
      <stop offset="0.28" stop-color="#07c3f2"/>
      <stop offset="0.94" stop-color="#087cfa"/>
    </linearGradient>
    <linearGradient id="linear-gradient-2" x1="0.105" y1="0.115" x2="0.601" y2="0.686" gradientUnits="objectBoundingBox">
      <stop offset="0.14" stop-color="#fcf84a"/>
      <stop offset="0.37" stop-color="#07c3f2"/>
    </linearGradient>
    <linearGradient id="linear-gradient-3" x1="-0.461" y1="0.098" x2="-0.225" y2="0.632" xlink:href="#linear-gradient"/>
  </defs>
  <g id="WebStorm" transform="translate(14964 9640)">
    <g id="Group_139" data-name="Group 139">
      <rect id="Rectangle_187" data-name="Rectangle 187" width="204" height="200" rx="11" transform="translate(-14964 -9640)" fill="none"/>
      <rect id="Rectangle_188" data-name="Rectangle 188" width="176" height="176" rx="13" transform="translate(-14951 -9627)" fill="#fff"/>
    </g>
    <g id="WebStorm-2" data-name="WebStorm" transform="translate(-14926 -9603)">
      <path id="Path_95" data-name="Path 95" d="M21.262,111.25,5.484,17.75,34.656,5.645l18.63,11.07L70.352,7.508,105.91,21.164,85.97,122.516Zm0,0" fill="url(#linear-gradient)"/>
      <path id="Path_96" data-name="Path 96" d="M122.516,45.117,107.41,7.813l-27.4-2.33L37.707,46.13,49.09,98.512l21.262,14.91,52.164-30.953-12.8-24Zm0,0" fill="url(#linear-gradient-2)"/>
      <path id="Path_97" data-name="Path 97" d="M99.07,39.559l10.645,18.906,12.8-13.348-9.4-23.234Zm0,0" fill="url(#linear-gradient-3)"/>
      <path id="Path_98" data-name="Path 98" d="M27.43,27.43h73.14v73.14H27.43Zm0,0"/>
      <path id="Path_99" data-name="Path 99" d="M36.547,86.746h27.43V91.32H36.547Zm25.965-50.21-4.082,16-4.668-16H49.117L44.434,52.54l-4.07-16h-6.4L41.8,63.978h5.144L51.43,48.09l4.437,15.887h5.207L68.9,36.535Zm7.535,23.526,3.57-4.277a12.625,12.625,0,0,0,8.219,3.34c2.437,0,3.973-.977,3.973-2.6v-.074c0-1.535-.95-2.316-5.547-3.5-5.547-1.414-9.117-2.953-9.117-8.414v-.086c0-4.984,4.007-8.289,9.628-8.289a15.85,15.85,0,0,1,10.215,3.5l-3.144,4.559a12.877,12.877,0,0,0-7.156-2.707c-2.317,0-3.536,1.062-3.536,2.437v.086c0,1.805,1.22,2.437,5.938,3.66,5.582,1.461,8.73,3.461,8.73,8.262v.074c0,5.461-4.172,8.535-10.11,8.535a17.48,17.48,0,0,1-11.663-4.4" fill="#fff"/>
    </g>
  </g>
</svg>
